<?xml version="1.0" standalone="no"?>
<!DOCTYPE svg PUBLIC "-//W3C//DTD SVG 20010904//EN"
 "http://www.w3.org/TR/2001/REC-SVG-20010904/DTD/svg10.dtd">
<svg version="1.0" xmlns="http://www.w3.org/2000/svg"
 width="200.000000pt" height="200.000000pt" viewBox="0 0 200.000000 200.000000"
 preserveAspectRatio="xMidYMid meet">

<g transform="translate(0.000000,200.000000) scale(0.100000,-0.100000)"
fill="#000000" stroke="none">
<path d="M0 1599 l0 -401 47 7 c27 4 49 8 51 10 3 2 -7 131 -45 573 -16 190
-19 212 -35 212 -17 0 -18 -23 -18 -401z"/>
<path d="M1040 1849 c-74 -13 -167 -72 -194 -124 -30 -57 -29 -185 2 -244 26
-49 26 -51 9 -51 -22 0 -50 -37 -43 -56 5 -14 10 -12 31 12 l25 29 -1 -58 c-1
-34 -8 -64 -16 -72 -7 -7 -10 -20 -7 -29 6 -16 -5 -20 -91 -31 -188 -23 -532
-89 -692 -131 l-63 -17 0 -538 0 -539 1000 0 1000 0 0 204 c0 161 -3 206 -14
215 -12 10 -12 22 0 84 10 53 14 170 14 445 l0 374 -137 -7 c-279 -13 -438
-24 -457 -31 -17 -6 -18 -4 -13 17 4 13 7 32 7 42 0 9 6 16 12 15 17 -4 23 43
7 53 -10 6 -8 20 9 64 25 65 28 141 8 188 -19 45 -116 134 -179 162 -62 29
-141 37 -217 24z m185 -209 c17 -5 41 -12 55 -15 36 -9 81 -67 85 -112 l3 -38
-64 3 c-71 4 -94 -6 -94 -43 0 -55 35 -82 111 -87 52 -3 56 -14 32 -93 -27
-86 -63 -134 -63 -82 0 16 -9 26 -28 33 -26 10 -28 15 -24 45 3 28 2 32 -9 22
-16 -16 -69 -17 -69 -2 0 6 -9 8 -22 3 -31 -9 -33 -11 -18 -29 7 -8 9 -15 4
-15 -5 0 2 -9 16 -20 15 -11 34 -17 47 -14 11 3 33 -1 48 -9 26 -13 19 -14
-72 -9 -64 3 -103 1 -107 -6 -4 -7 25 -13 83 -17 70 -6 88 -10 84 -21 -4 -10
2 -13 17 -12 13 2 25 -2 27 -8 6 -16 -40 -26 -52 -11 -5 6 -29 13 -52 14 -36
1 -43 -1 -43 -17 0 -28 70 -44 85 -19 7 10 34 -16 35 -33 0 -16 -40 -29 -59
-19 -13 7 -29 7 -50 0 -45 -16 -91 3 -121 49 -13 20 -46 58 -72 84 -26 25 -48
55 -49 65 0 10 -3 51 -5 91 -3 46 0 80 8 95 6 12 11 35 10 50 -2 16 6 40 18
54 11 14 23 43 26 64 5 28 15 44 38 59 28 18 41 20 121 15 50 -4 104 -11 120
-15z m166 -423 c-8 -8 -11 -4 -11 14 0 33 14 47 18 19 2 -12 -1 -27 -7 -33z
m-521 -29 c0 -31 31 -151 43 -166 7 -9 6 -11 -7 -6 -22 8 -20 -8 3 -33 11 -12
17 -23 14 -26 -3 -4 -21 12 -39 34 -33 40 -34 43 -34 130 0 53 4 89 10 89 6 0
10 -10 10 -22z m113 -260 c16 -8 17 -12 6 -20 -11 -7 -11 -11 -1 -15 7 -2 19
-18 27 -34 15 -27 14 -29 -4 -29 -24 0 -95 29 -88 37 4 3 0 12 -8 20 -8 8 -15
22 -15 31 0 15 2 15 10 2 9 -13 10 -13 10 0 0 19 35 23 63 8z m127 -28 c0 -5
-2 -10 -4 -10 -3 0 -8 5 -11 10 -3 6 -1 10 4 10 6 0 11 -4 11 -10z m-440 -114
c0 -3 -4 -8 -10 -11 -5 -3 -10 -1 -10 4 0 6 5 11 10 11 6 0 10 -2 10 -4z
m-450 -676 c8 -5 11 -10 5 -10 -5 0 -17 5 -25 10 -8 5 -10 10 -5 10 6 0 17 -5
25 -10z"/>
<path d="M970 1493 c-37 -25 -53 -53 -30 -53 6 0 27 -11 48 -25 65 -43 165
-32 178 20 8 31 -6 47 -55 64 -49 16 -113 14 -141 -6z"/>
<path d="M784 1476 c-8 -21 -4 -25 19 -17 17 6 17 8 3 20 -13 11 -17 11 -22
-3z"/>
</g>
</svg>
